<?xml version="1.0" encoding="utf-8"?>
<svg viewBox="0 0 500 500" xmlns="http://www.w3.org/2000/svg">
  <path d="M 285.644 151.319 C 257.438 150.338 230.574 141.235 204.92 131.272 C 179.263 121.309 153.86 110.27 126.33 104.993 C 108.623 101.598 88.376 101.119 74.108 110.611 C 60.381 119.762 55.944 135.517 53.555 150.147 C 51.763 161.159 50.705 172.743 55.625 183.051 C 59.037 190.205 65.1 196.22 69.291 203.076 C 83.874 226.922 73.567 256.331 57.76 279.615 C 50.352 290.537 41.75 300.97 36.027 312.589 C 30.305 324.207 27.66 337.538 32.662 349.401 C 37.627 361.167 49.45 369.988 62.254 376.199 C 88.267 388.81 118.909 392.424 148.813 394.468 C 214.978 398.995 281.498 397.035 347.837 395.073 C 372.39 394.345 397.048 393.61 421.201 389.813 C 434.613 387.704 448.464 384.357 458.2 376.304 C 470.559 366.048 473.623 348.682 465.343 335.826 C 451.449 314.258 413.047 308.898 403.324 285.751 C 397.976 273.013 403.468 258.819 411.232 247.005 C 427.898 221.654 455.829 199.419 457.302 170.443 C 458.314 150.543 444.887 130.614 424.124 121.195 C 402.361 111.325 372.184 112.567 356.139 128.906 C 339.597 145.711 310.545 152.182 285.644 151.319 Z" fill="#dd5404" opacity="0.1" style=""/>
</svg>